<svg width="193" height="48" viewBox="0 0 193 48" fill="none" xmlns="http://www.w3.org/2000/svg">
<path d="M66.8493 23.4433C64.4971 23.4433 62.7151 24.2995 61.7528 25.6196V16.8072H56.4069V41.7817H61.7528V32.0417C61.7528 29.5085 63.1071 28.3668 65.0673 28.3668C66.778 28.3668 68.1679 29.4015 68.1679 31.6135V41.7817H73.5139V30.8286C73.5139 26.0121 70.4489 23.4433 66.8493 23.4433Z" fill="#54575A"/>
<path d="M90.1222 23.9428V25.6196C88.9461 24.2639 87.1998 23.4433 84.8119 23.4433C80.1431 23.4433 76.2941 27.5462 76.2941 32.8622C76.2941 38.1783 80.1431 42.2812 84.8119 42.2812C87.1998 42.2812 88.9461 41.4606 90.1222 40.1049V41.7817H95.4682V23.9428H90.1222ZM85.8811 37.215C83.422 37.215 81.64 35.5381 81.64 32.8622C81.64 30.1864 83.422 28.5095 85.8811 28.5095C88.3403 28.5095 90.1222 30.1864 90.1222 32.8622C90.1222 35.5381 88.3403 37.215 85.8811 37.215Z" fill="#54575A"/>
<path d="M110.046 23.4433C107.659 23.4433 105.912 24.2639 104.736 25.6196V16.8072H99.3902V41.7817H104.736V40.1049C105.912 41.4606 107.659 42.2812 110.046 42.2812C114.715 42.2812 118.564 38.1783 118.564 32.8622C118.564 27.5462 114.715 23.4433 110.046 23.4433ZM108.977 37.215C106.518 37.215 104.736 35.5381 104.736 32.8622C104.736 30.1864 106.518 28.5095 108.977 28.5095C111.436 28.5095 113.218 30.1864 113.218 32.8622C113.218 35.5381 111.436 37.215 108.977 37.215Z" fill="#54575A"/>
<path d="M124.268 22.3729C126.015 22.3729 127.476 20.9101 127.476 19.1619C127.476 17.4137 126.015 15.9509 124.268 15.9509C122.522 15.9509 121.061 17.4137 121.061 19.1619C121.061 20.9101 122.522 22.3729 124.268 22.3729ZM121.595 41.7817H126.941V23.9428H121.595V41.7817Z" fill="#54575A"/>
<path d="M141.296 29.0804V23.9428H137.625V18.9478L132.279 20.5533V23.9428H129.428V29.0804H132.279V35.3954C132.279 40.3903 134.31 42.4953 141.296 41.7817V36.9295C138.944 37.0722 137.625 36.9295 137.625 35.3954V29.0804H141.296Z" fill="#54575A"/>
<path d="M156.182 23.9428V33.6828C156.182 36.216 154.828 37.3577 152.868 37.3577C151.157 37.3577 149.767 36.323 149.767 34.111V23.9428H144.421V34.8959C144.421 39.7124 147.486 42.2812 151.086 42.2812C153.438 42.2812 155.22 41.425 156.182 40.1049V41.7817H161.528V23.9428H156.182Z" fill="#54575A"/>
<path d="M178.386 23.9428V25.6196C177.21 24.2639 175.464 23.4433 173.076 23.4433C168.407 23.4433 164.558 27.5462 164.558 32.8622C164.558 38.1783 168.407 42.2812 173.076 42.2812C175.464 42.2812 177.21 41.4606 178.386 40.1049V41.7817H183.732V23.9428H178.386ZM174.145 37.215C171.686 37.215 169.904 35.5381 169.904 32.8622C169.904 30.1864 171.686 28.5095 174.145 28.5095C176.604 28.5095 178.386 30.1864 178.386 32.8622C178.386 35.5381 176.604 37.215 174.145 37.215Z" fill="#54575A"/>
<path d="M187.654 41.7817H193V15.7368H187.654V41.7817Z" fill="#54575A"/>
<path fill-rule="evenodd" clip-rule="evenodd" d="M9.46686 6.60108C11.4862 3.20875 15.0798 0.252563 20.7378 0.252563C26.3959 0.252563 29.9894 3.20875 32.0088 6.60108C33.9468 9.85679 34.5484 13.6282 34.5484 16.1318H38.4054C40.3655 16.1318 41.8232 17.8367 41.4031 19.6378L35.342 45.622C35.0331 46.9465 33.7859 47.8903 32.3444 47.8903H9.13129C7.68979 47.8903 6.44256 46.9465 6.1336 45.622L0.0725437 19.6378C-0.347566 17.8367 1.11018 16.1318 3.07023 16.1318H6.92727C6.92727 13.6282 7.52881 9.85679 9.46686 6.60108ZM26.6533 9.4224C27.9377 11.5801 28.4103 14.3047 28.4103 16.1318H13.0653C13.0653 14.3047 13.5379 11.5801 14.8223 9.4224C16.0254 7.40135 17.8026 6.02683 20.7378 6.02683C23.673 6.02683 25.4502 7.40135 26.6533 9.4224ZM20.7378 34.256C24.1094 34.256 27.1249 32.8222 29.1332 30.5675L33.0139 34.2182C30.0059 37.4006 25.6207 39.4055 20.7378 39.4055C15.8549 39.4055 11.4697 37.4006 8.46177 34.2182L12.3424 30.5675C14.3507 32.8222 17.3663 34.256 20.7378 34.256Z" fill="#26A67C"/>
<path fill-rule="evenodd" clip-rule="evenodd" d="M9.46686 6.60108C11.4862 3.20875 15.0798 0.252563 20.7378 0.252563C26.3959 0.252563 29.9894 3.20875 32.0088 6.60108C33.9468 9.85679 34.5484 13.6282 34.5484 16.1318H38.4054C40.3655 16.1318 41.8232 17.8367 41.4031 19.6378L35.342 45.622C35.0331 46.9465 33.7859 47.8903 32.3444 47.8903H9.13129C7.68979 47.8903 6.44256 46.9465 6.1336 45.622L0.0725437 19.6378C-0.347566 17.8367 1.11018 16.1318 3.07023 16.1318H6.92727C6.92727 13.6282 7.52881 9.85679 9.46686 6.60108ZM26.6533 9.4224C27.9377 11.5801 28.4103 14.3047 28.4103 16.1318H13.0653C13.0653 14.3047 13.5379 11.5801 14.8223 9.4224C16.0254 7.40135 17.8026 6.02683 20.7378 6.02683C23.673 6.02683 25.4502 7.40135 26.6533 9.4224ZM20.7378 34.256C24.1094 34.256 27.1249 32.8222 29.1332 30.5675L33.0139 34.2182C30.0059 37.4006 25.6207 39.4055 20.7378 39.4055C15.8549 39.4055 11.4697 37.4006 8.46177 34.2182L12.3424 30.5675C14.3507 32.8222 17.3663 34.256 20.7378 34.256Z" fill="#FAB131"/>
</svg>
